<svg xmlns="http://www.w3.org/2000/svg" xmlns:xlink="http://www.w3.org/1999/xlink" viewBox="0,0,256,256" width="96px" height="96px" fill-rule="nonzero"><g fill="none" fill-rule="nonzero" stroke="none" stroke-width="1" stroke-linecap="butt" stroke-linejoin="miter" stroke-miterlimit="10" stroke-dasharray="" stroke-dashoffset="0" font-family="none" font-weight="none" font-size="none" text-anchor="none" style="mix-blend-mode: normal"><g transform="scale(2.66667,2.66667)"><path d="M46.33,62c-1.872,0 -3.735,-0.747 -5.109,-2.212l-13.367,-13.692c-1.157,-1.186 -1.135,-3.085 0.051,-4.242c1.185,-1.157 3.085,-1.135 4.242,0.051l13.409,13.735c0.387,0.412 0.954,0.463 1.359,0.169l32.998,-31.964c1.188,-1.153 3.087,-1.124 4.242,0.067c1.152,1.19 1.122,3.089 -0.068,4.242l-33.1,32.063c-0.051,0.049 -0.104,0.097 -0.157,0.142c-1.309,1.099 -2.907,1.641 -4.5,1.641z" fill="#00acea" opacity="0.3"></path><path d="M46.329,61c-1.604,0 -3.201,-0.64 -4.379,-1.896l-13.381,-13.707c-0.772,-0.79 -0.757,-2.057 0.033,-2.828c0.792,-0.771 2.058,-0.756 2.828,0.034l13.41,13.736c0.74,0.788 1.916,0.873 2.729,0.229l33.04,-32.005c0.794,-0.769 2.06,-0.748 2.828,0.045c0.769,0.793 0.748,2.06 -0.045,2.828l-33.1,32.063c-0.034,0.033 -0.069,0.064 -0.105,0.095c-1.122,0.942 -2.493,1.406 -3.858,1.406z" fill="#00acea" opacity="0.3"></path><path d="M49.121,85.66c-3.813,0 -7.599,-0.534 -11.185,-1.532c-17.334,-4.829 -33.039,-21.369 -26.556,-46.274c0.009,-0.033 0.018,-0.065 0.027,-0.098c4.205,-14.162 13.861,-23.579 27.188,-26.515c13.877,-3.058 29.433,1.965 38.713,12.495c1.095,1.243 0.976,3.139 -0.268,4.234c-1.243,1.094 -3.138,0.977 -4.234,-0.267c-7.881,-8.943 -21.111,-13.206 -32.919,-10.603c-11.085,2.442 -19.149,10.366 -22.713,22.315c-5.428,20.955 7.786,34.87 22.373,38.932c14.583,4.064 33.093,-1.017 39.279,-21.764c1.982,-7.65 1.622,-14.736 -1.07,-21.062c-0.648,-1.524 0.062,-3.287 1.586,-3.935c1.521,-0.648 3.285,0.06 3.936,1.585c3.184,7.481 3.647,16.116 1.343,24.972c-0.009,0.033 -0.018,0.065 -0.027,0.098c-5.812,19.571 -20.851,27.419 -35.473,27.419zM81.717,57.389h0.01z" fill="#00efd1" opacity="0.3"></path><path d="M49.088,84.655c-3.711,0 -7.394,-0.52 -10.883,-1.491c-16.879,-4.702 -32.17,-20.807 -25.857,-45.058c4.115,-13.863 13.507,-23.034 26.463,-25.889c13.528,-2.981 28.7,1.913 37.747,12.18c0.73,0.829 0.651,2.092 -0.178,2.823c-0.828,0.729 -2.095,0.649 -2.822,-0.178c-8.116,-9.208 -21.735,-13.594 -33.886,-10.918c-11.472,2.527 -19.807,10.715 -23.472,23.055c-5.613,21.571 8.024,35.938 23.078,40.131c15.057,4.193 34.157,-1.057 40.521,-22.491c2.034,-7.823 1.663,-15.142 -1.123,-21.689c-0.433,-1.016 0.04,-2.191 1.057,-2.624c1.021,-0.433 2.192,0.042 2.623,1.057c3.141,7.379 3.577,15.565 1.296,24.329c-5.673,19.111 -20.324,26.763 -34.564,26.763z" fill="#00efd1" opacity="0.3"></path><path d="M46.31,59.992c-1.336,0 -2.655,-0.533 -3.63,-1.572l-13.396,-13.721c-0.386,-0.396 -0.378,-1.028 0.018,-1.414c0.395,-0.385 1.027,-0.378 1.414,0.017l13.409,13.736c1.104,1.178 2.915,1.285 4.132,0.26l33.048,-32.015c0.395,-0.383 1.028,-0.375 1.414,0.022c0.384,0.396 0.374,1.03 -0.023,1.414l-33.1,32.063c-0.966,0.812 -2.133,1.21 -3.286,1.21z" fill="#00acea"></path><path d="M49.064,83.652c-3.611,0 -7.194,-0.505 -10.591,-1.451c-16.422,-4.575 -31.3,-20.245 -25.158,-43.843c3.998,-13.466 13.126,-22.391 25.711,-25.164c13.187,-2.904 27.967,1.863 36.781,11.864c0.365,0.414 0.325,1.046 -0.089,1.411c-0.413,0.365 -1.045,0.326 -1.411,-0.089c-8.349,-9.473 -22.353,-13.989 -34.852,-11.233c-11.841,2.609 -20.44,11.043 -24.213,23.748c-5.793,22.257 8.258,37.059 23.768,41.379c15.511,4.319 35.191,-1.088 41.748,-23.17c2.102,-8.074 1.714,-15.61 -1.161,-22.365c-0.217,-0.508 0.021,-1.096 0.528,-1.312c0.508,-0.216 1.095,0.02 1.312,0.528c3.053,7.171 3.472,15.14 1.248,23.685c-5.514,18.57 -19.766,26.011 -33.621,26.012z" fill="#00efd1"></path></g></g></svg>