<?xml version="1.0" encoding="UTF-8"?>
<!DOCTYPE svg PUBLIC "-//W3C//DTD SVG 1.1//EN" "http://www.w3.org/Graphics/SVG/1.1/DTD/svg11.dtd">
<!-- Creator: CorelDRAW X8 -->
<svg xmlns="http://www.w3.org/2000/svg" xml:space="preserve" width="297mm" height="210mm" version="1.1" style="shape-rendering:geometricPrecision; text-rendering:geometricPrecision; image-rendering:optimizeQuality; fill-rule:evenodd; clip-rule:evenodd"
viewBox="0 0 29700 21000"
 xmlns:xlink="http://www.w3.org/1999/xlink">
 <defs>
  <style type="text/css">
   <![CDATA[
    .fil0 {fill:none}
    .fil5 {fill:none;fill-rule:nonzero}
    .fil4 {fill:white}
    .fil1 {fill:url(#id2)}
    .fil2 {fill:url(#id3);fill-rule:nonzero}
    .fil3 {fill:url(#id4);fill-rule:nonzero}
   ]]>
  </style>
   <clipPath id="id0">
    <rect x="3241" y="8188" width="23246" height="4623"/>
   </clipPath>
   <clipPath id="id1" style="clip-rule:nonzero">
    <path d="M16017 12123l-625 0 0 -2037 -1100 1935c-27,49 -65,86 -113,112 -49,25 -101,38 -156,38 -55,0 -105,-13 -152,-38 -47,-26 -83,-63 -110,-112l-1105 -1935 0 2037 -621 0 0 -3155c0,-72 22,-136 64,-191 42,-56 98,-93 166,-112 33,-8 67,-11 100,-8 34,2 65,9 96,21 31,12 60,28 85,50 26,21 47,48 64,78l1413 2453 1412 -2453c36,-61 87,-104 151,-129 64,-26 132,-30 202,-12 67,19 121,56 164,112 43,55 65,119 65,191l0 3155zm5035 -1006c0,122 -16,232 -47,330 -31,98 -71,184 -122,259 -51,74 -110,138 -179,191 -68,52 -139,95 -212,129 -74,33 -148,57 -223,74 -76,15 -147,23 -214,23l-2392 0 0 -620 2392 0c119,0 212,-35 278,-105 66,-70 99,-164 99,-281 0,-58 -9,-110 -26,-158 -18,-47 -43,-89 -76,-124 -32,-35 -72,-62 -118,-81 -48,-19 -100,-29 -157,-29l-1426 0c-100,0 -209,-18 -324,-53 -117,-36 -224,-93 -323,-173 -100,-80 -183,-184 -249,-313 -66,-128 -99,-285 -99,-472 0,-186 33,-343 99,-471 66,-128 149,-232 249,-312 99,-81 206,-138 323,-174 115,-36 224,-54 324,-54l2111 0 0 620 -2111 0c-118,0 -209,35 -275,107 -66,72 -100,166 -100,284 0,119 34,214 100,283 66,69 157,104 275,104l1426 0 5 0c67,2 138,11 212,27 75,17 150,43 223,77 74,35 145,80 212,133 66,54 126,117 177,192 51,75 93,160 123,257 30,97 45,207 45,330zm4901 1006l-621 0 0 -839 -2180 0 0 839 -620 0 0 -1710c0,-249 43,-480 128,-689 87,-210 205,-391 358,-541 153,-152 333,-269 542,-354 208,-84 435,-126 682,-126l1398 0c42,0 83,8 121,24 39,16 72,38 100,66 29,29 52,62 67,101 16,38 25,79 25,122l0 3107zm-2801 -1460l2180 0 0 -1340 -1090 0c-19,0 -59,3 -120,9 -61,5 -132,19 -213,41 -80,22 -164,56 -254,103 -89,46 -171,110 -246,190 -74,82 -136,183 -185,305 -48,121 -72,268 -72,442l0 250z"/>
   </clipPath>
  <linearGradient id="id2" gradientUnits="userSpaceOnUse" x1="2707.77" y1="12270.1" x2="28721.6" y2="12376.8">
   <stop offset="0" style="stop-opacity:1; stop-color:#00CCFF"/>
   <stop offset="0.45098" style="stop-opacity:1; stop-color:#9900CC"/>
   <stop offset="0.568627" style="stop-opacity:1; stop-color:#00CCFF"/>
   <stop offset="0.721569" style="stop-opacity:1; stop-color:#00CCFF"/>
   <stop offset="1" style="stop-opacity:1; stop-color:#9900CC"/>
  </linearGradient>
  <linearGradient id="id3" gradientUnits="userSpaceOnUse" x1="2638.7" y1="12288.9" x2="11043.1" y2="12351.1">
   <stop offset="0" style="stop-opacity:1; stop-color:#9900CC"/>
   <stop offset="0.580392" style="stop-opacity:1; stop-color:aqua"/>
   <stop offset="1" style="stop-opacity:1; stop-color:#9900CC"/>
  </linearGradient>
  <linearGradient id="id4" gradientUnits="objectBoundingBox" x1="0%" y1="108.51%" x2="105.453%" y2="107.657%">
   <stop offset="0" style="stop-opacity:1; stop-color:#9900CC"/>
   <stop offset="0.188235" style="stop-opacity:1; stop-color:aqua"/>
   <stop offset="0.34902" style="stop-opacity:1; stop-color:#0873F7"/>
   <stop offset="0.690196" style="stop-opacity:1; stop-color:aqua"/>
   <stop offset="1" style="stop-opacity:1; stop-color:#9900CC"/>
  </linearGradient>
 </defs>
 <g id="Capa_x0020_1">
  <metadata id="CorelCorpID_0Corel-Layer"/>
  <rect class="fil0" width="29700" height="21000"/>
  <g style="clip-path:url(#id0)">
   <image x="3241" y="8188" width="23246" height="4623" xlink:href="LOGOSIGLA_Images\LOGOSIGLA_ImgID1.png"/>
  </g>
  <path class="fil1" d="M6724 12262l-2103 0 -20 0 -21 -1 -21 -2 -21 -2 -22 -2 -23 -4 -22 -4 -24 -4 -11 -3 -12 -2 -637 -150 12 2 12 3 25 5 24 4 24 3 23 3 23 2 22 2 22 1 22 0 2237 0 0 -620 491 186 0 583zm17955 -2633l-1025 0 -7 0 -10 1 -11 1 -14 0 -15 2 -17 1 -18 2 -21 2 -11 1 -11 1 -11 2 -12 1 -11 2 -12 2 -12 2 -13 2 -12 3 -13 3 -13 3 -13 3 -14 3 -14 3 -13 4 -15 4 -14 4 -14 4 -14 5 -15 4 -14 5 -15 6 -15 5 -15 6 -15 6 -15 7 -15 7 -15 7 -15 7 -16 7 -16 8 -15 8 -16 9 554 -307 16 -9 17 -9 17 -8 16 -8 16 -8 17 -7 16 -7 16 -7 16 -7 16 -6 15 -6 16 -6 15 -5 16 -5 15 -5 15 -5 15 -4 15 -4 15 -4 14 -3 15 -4 14 -3 14 -3 13 -3 14 -3 13 -2 13 -3 13 -2 12 -2 12 -1 12 -2 12 -1 12 -2 22 -2 20 -1 17 -2 16 -1 15 -1 12 -1 10 0 8 0 1090 0 0 1340 -655 237 0 -1261zm-2632 2633l0 -1608 0 -22 0 -22 1 -21 0 -22 2 -21 1 -22 1 -21 2 -21 2 -21 2 -21 3 -21 3 -21 3 -21 3 -20 3 -20 4 -21 4 -20 4 -20 4 -20 5 -20 5 -20 5 -19 5 -20 6 -19 5 -20 6 -19 7 -19 6 -19 7 -19 7 -18 7 -19 7 -18 16 -37 16 -36 17 -36 18 -34 19 -34 19 -34 20 -33 20 -32 22 -31 22 -31 23 -30 23 -30 25 -29 25 -28 26 -27 26 -27 27 -27 28 -25 29 -25 29 -24 29 -23 30 -23 31 -22 32 -21 531 -337 -33 22 -33 23 -32 25 -32 24 -31 26 -30 26 -30 28 -28 28 -29 28 -27 29 -27 30 -26 31 -25 32 -24 32 -24 32 -23 34 -22 34 -21 35 -20 36 -20 36 -19 37 -18 38 -17 38 -17 39 -8 20 -7 19 -8 20 -7 20 -7 21 -6 20 -7 20 -6 21 -6 20 -5 21 -6 21 -5 21 -5 21 -5 21 -4 22 -4 21 -4 22 -4 22 -3 21 -3 22 -3 23 -3 22 -2 22 -2 22 -2 23 -2 23 -1 22 -1 23 -1 23 -1 23 0 23 0 24 0 1710 620 0 -524 149 -583 0zm2632 -789l-2049 0 524 -199 2180 0 0 839 621 0 -693 149 -583 0 0 -789zm-3937 -2160l-380 316 -1984 0 -21 1 -19 1 -20 2 -18 3 -19 3 -17 5 -17 5 -17 6 -16 6 -15 8 -15 8 -14 9 -13 10 -13 11 -13 11 -12 12 -11 13 -10 14 235 -309 11 -14 12 -14 12 -13 14 -12 14 -12 14 -10 15 -10 16 -8 16 -8 17 -8 17 -6 18 -5 19 -5 19 -4 20 -3 21 -2 21 -1 22 0 2111 0zm-493 2139l-350 188 15 -8 15 -9 13 -9 13 -11 13 -11 12 -12 11 -13 11 -13 9 -13 9 -15 9 -14 8 -15 6 -16 7 -16 5 -17 5 -17 4 -18 3 -19 3 -18 2 -20 1 -20 0 -20 0 -20 -1 -20 -2 -19 -3 -19 -4 -18 -4 -18 -5 -17 -5 -17 -7 -17 -7 -16 -8 -15 -9 -15 -9 -14 -10 -14 -10 -13 -12 -13 -11 -12 -13 -11 -13 -11 -14 -10 -14 -9 -15 -8 -15 -8 -16 -7 -17 -7 -17 -5 -18 -5 -18 -3 -19 -3 -19 -2 -19 -2 -20 0 -1341 0 -18 0 -18 -1 -18 -1 -18 -1 -18 -2 -19 -2 -19 -3 -19 -3 -19 -3 -19 -4 -20 -4 -19 -5 -20 -4 -20 -6 -20 -6 -21 -6 -20 -6 -20 -7 -20 -8 -20 -8 -20 -8 -19 -9 -19 -9 -20 -10 -18 -11 -19 -10 -19 -12 -18 -12 -18 -12 -18 -13 -18 -13 -17 -14 -18 -14 -17 -15 -17 -15 -16 -16 -16 -17 -15 -17 -15 -17 -15 -19 -15 -18 -14 -19 -13 -20 -13 -20 -13 -21 -13 -21 -12 -22 -12 -23 -11 -23 -11 -23 -9 -25 -10 -24 -8 -26 -8 -26 -7 -27 -6 -27 -5 -28 -5 -29 -4 -29 -3 -30 -3 -31 -2 -31 -1 -32 0 -33 0 -32 1 -32 2 -31 3 -31 3 -30 4 -29 5 -29 5 -28 6 -27 7 -27 8 -26 8 -25 10 -25 9 -24 11 -24 11 -23 12 -22 12 -22 13 -21 201 -326 -13 23 -13 23 -13 24 -12 24 -11 25 -10 26 -10 26 -9 28 -8 27 -7 29 -7 29 -6 30 -5 30 -4 31 -4 32 -2 32 -2 34 -2 34 0 34 0 35 2 34 2 33 2 32 4 32 4 32 5 30 6 30 7 29 7 29 8 27 9 27 10 27 10 26 11 25 12 24 13 24 13 23 13 23 14 22 14 22 15 21 14 20 16 20 15 19 17 19 16 18 17 18 17 17 18 16 18 16 19 15 18 15 19 14 19 13 20 14 19 12 20 12 20 12 20 11 20 10 21 10 20 10 21 9 21 8 22 8 21 8 22 7 22 6 21 6 21 6 21 5 21 5 21 4 20 4 21 4 20 3 20 3 20 2 19 2 20 1 19 1 19 1 19 0 1426 0 21 1 21 1 20 2 20 4 19 4 19 4 19 6 18 7 17 7 16 9 16 9 15 10 15 10 14 11 13 12 13 13 11 14 12 14 10 14 10 15 9 16 8 17 8 17 7 17 6 18 6 19 4 19 4 19 3 20 2 21 1 20 0 22 0 22 -1 21 -2 20 -3 20 -3 20 -5 19 -5 18 -6 18 -6 17 -8 17 -8 16 -9 16 -9 15 -11 14 -11 14 -12 14 -13 12 -13 12 -14 11 -15 11 -15 9 -16 9zm-2779 810l0 -583 195 -186 0 620 2392 0 13 0 13 0 12 -1 13 0 13 -1 13 -1 13 -1 14 -2 13 -1 13 -2 14 -2 14 -2 14 -3 13 -2 14 -3 15 -2 14 -4 14 -3 14 -3 14 -4 14 -4 14 -4 14 -5 14 -4 14 -5 14 -5 14 -5 14 -5 13 -6 14 -5 -363 153 -13 6 -13 5 -13 5 -13 5 -13 4 -13 5 -13 4 -13 4 -13 4 -14 4 -13 3 -13 4 -13 3 -14 3 -13 2 -13 3 -13 2 -13 2 -13 2 -13 2 -13 2 -12 1 -13 2 -12 1 -12 1 -12 0 -13 1 -11 1 -12 0 -12 0 -2249 0zm-4707 0l-583 0 -142 -149 620 0 0 -2037 1105 1935 10 18 12 16 12 16 13 15 15 13 15 12 16 12 17 10 18 9 18 8 18 6 19 6 19 4 20 3 20 2 20 0 20 0 21 -2 20 -3 19 -4 20 -6 19 -6 19 -8 18 -9 18 -10 16 -12 16 -12 15 -13 13 -15 13 -16 12 -16 10 -18 1100 -1935 0 2037 625 0 -97 149 -587 0 0 -1915 -1033 1818 -10 17 -11 16 -12 15 -13 14 -14 12 -15 12 -15 10 -17 10 -17 8 -18 8 -18 6 -18 5 -18 4 -19 3 -19 1 -20 1 -19 -1 -18 -1 -19 -3 -18 -4 -17 -5 -18 -6 -17 -8 -16 -8 -16 -10 -16 -10 -14 -12 -13 -12 -13 -14 -11 -15 -11 -16 -10 -17 -1039 -1818 0 1915zm-2810 0l-1051 0 -15 0 -16 -1 -15 -1 -16 -1 -16 -1 -16 -2 -16 -2 -16 -3 -16 -3 -17 -3 -16 -3 -17 -4 -17 -5 -17 -4 -18 -5 -17 -5 -18 -5 -17 -6 -17 -7 -17 -7 -373 -153 18 8 18 6 19 7 18 6 19 5 18 5 19 5 18 4 17 4 18 4 18 4 17 3 17 2 18 3 16 2 17 1 17 2 16 0 17 1 16 0 1119 0 0 -592 284 185 0 556zm374 -2435l245 286 13 16 12 15 12 17 12 16 11 17 12 18 10 18 11 19 10 19 10 19 9 20 9 20 7 21 8 22 6 22 6 23 6 23 5 23 4 24 3 25 3 25 2 26 2 26 1 27 0 27 0 15 0 15 -1 16 -1 16 -2 15 -2 16 -2 16 -3 17 -2 16 -4 17 -3 16 -4 17 -4 17 -5 17 -4 18 -6 17 -5 17 -6 18 -6 17 -7 17 -7 17 -8 16 -8 17 -8 16 -9 16 -9 16 -10 16 -10 16 -10 15 -11 16 -12 15 -11 15 -12 15 -13 14 -13 15 -14 14 -14 13 -14 13 -15 13 -15 13 -16 13 -16 12 -17 11 -17 12 -18 11 -18 11 -18 10 -19 11 -20 10 -20 9 -20 8 -21 8 -22 8 -22 6 -22 6 -23 6 -24 4 -24 4 -25 4 -25 3 -26 2 -26 2 -26 0 -28 1 -1051 0 -249 -142 0 157 1 15 0 14 2 13 2 13 2 13 3 12 4 12 4 12 5 11 5 11 6 10 7 10 7 9 8 10 8 8 9 8 9 8 10 8 9 7 10 6 11 6 -360 -186 -11 -7 -11 -6 -10 -8 -10 -7 -10 -9 -10 -9 -8 -9 -9 -10 -7 -10 -7 -10 -7 -11 -5 -12 -5 -11 -5 -13 -4 -12 -3 -14 -3 -13 -2 -14 -1 -15 -1 -15 -1 -15 0 -865 1 -15 1 -13 1 -14 2 -13 2 -13 3 -13 4 -13 4 -12 4 -12 5 -11 6 -12 6 -11 7 -10 7 -11 8 -10 9 -9 8 -10 10 -9 9 -8 11 -7 10 -7 11 -7 12 -6 12 -5 12 -4 13 -4 13 -3 14 -3 15 -2 14 -2 15 0 16 -1 1119 0 27 1 26 4 24 5 24 7 23 10 22 12 21 14 20 16 9 9 273 264 -9 -9 -18 -15 -20 -13 -21 -11 -21 -10 -22 -7 -24 -5 -24 -3 -26 -1 -1051 0 -15 1 -14 0 -14 2 -13 2 -13 2 -13 3 -12 4 -12 4 -11 5 -11 5 -10 6 -10 7 -10 7 -9 8 -8 8 -9 9 -8 9 -7 10 -7 9 -6 10 -6 11 -5 10 -5 11 -5 11 -3 12 -4 12 -2 12 -3 12 -1 12 -2 13 0 13 -1 14 0 597 1016 0 29 0 28 -1 28 -2 27 -3 27 -3 26 -3 26 -5 25 -5 24 -5 24 -7 24 -7 23 -8 22 -8 22 -9 21 -10 21 -10 20 -11 20 -11 19 -12 19 -12 18 -12 17 -13 18 -13 17 -13 16 -13 16 -14 15 -14 15 -15 14 -15 14 -15 14 -15 13 -16 12 -16 12 -16 12 -17 11 -16 10 -17 11 -17 10 -17 9 -17 9 -17 8 -18 8 -18 8 -17 7 -18 7 -19 6 -18 6 -19 6 -18 5 -18 5 -19 4 -18 4 -18 4 -18 3 -17 3 -18 3 -17 2 -17 2 -17 2 -17 1 -16 1 -17 1 -16 0 -16 -1 -29 -1 -29 -1 -28 -3 -27 -3 -27 -4 -26 -4 -25 -5 -26 -6 -24 -6 -24 -7 -23 -8 -23 -8 -23 -9 -21 -10 -22 -11 -20 -10 -21 -12 -19 -11 -20 -12 -18 -12 -19 -13 -17 -13 -18 -13 -16 -13 -17zm-3603 -198l-2103 0 -28 1 -26 3 -24 5 -23 7 -21 8 -19 11 -17 12 -16 15 -8 7 -7 8 -6 9 -6 9 -5 10 -5 10 -5 10 -4 11 -4 12 -3 11 -2 13 -3 13 -1 13 -2 14 0 14 0 15 0 1574 0 27 3 25 5 24 7 23 9 21 10 19 13 18 14 17 17 14 18 12 19 11 21 8 22 7 -630 -186 -24 -8 -22 -9 -21 -11 -18 -13 -18 -15 -15 -18 -14 -19 -11 -20 -9 -23 -7 -24 -6 -25 -3 -27 -1 -29 0 -1675 1 -15 0 -16 2 -14 1 -14 3 -14 3 -13 3 -13 4 -12 4 -12 5 -11 5 -10 6 -11 6 -9 7 -9 8 -9 7 -8 17 -16 19 -13 20 -11 23 -9 24 -7 26 -5 27 -3 30 -1 2237 0 0 -620 491 354 0 582z"/>
  <path class="fil2" d="M6233 12120l-2237 0c-57,0 -119,-7 -185,-21 -66,-13 -131,-34 -195,-63 -64,-29 -126,-65 -185,-111 -59,-45 -110,-100 -156,-164 -46,-65 -81,-140 -108,-224 -28,-86 -41,-182 -41,-288l0 -1679c0,-57 6,-119 20,-185 13,-66 35,-131 63,-195 28,-65 66,-127 112,-185 47,-59 101,-111 166,-156 65,-46 139,-82 223,-109 84,-27 180,-40 286,-40l2237 0 0 619 -2237 0c-81,0 -143,22 -185,65 -44,43 -66,106 -66,191l0 1674c0,79 22,141 66,185 44,43 105,65 185,65l2237 0 0 621zm4289 -1725c0,86 -15,179 -45,278 -30,99 -79,191 -147,277 -67,84 -156,156 -264,213 -109,58 -242,86 -398,86l-1118 0 0 -589 1118 0c84,0 149,-26 196,-77 46,-53 69,-116 69,-193 0,-81 -26,-144 -77,-190 -52,-46 -114,-69 -188,-69l-1118 0c-85,0 -150,25 -195,77 -47,51 -70,116 -70,192l0 866c0,83 26,147 78,192 51,47 115,70 192,70l1113 0 0 592 -1118 0c-86,0 -178,-16 -278,-46 -100,-30 -192,-79 -276,-147 -86,-67 -157,-155 -215,-264 -57,-109 -85,-241 -85,-397l0 -871c0,-86 15,-178 46,-277 30,-100 78,-192 146,-277 68,-86 156,-156 265,-214 109,-57 241,-86 397,-86l1118 0c86,0 179,16 278,46 99,30 192,79 277,146 85,68 156,156 213,265 57,109 86,241 86,397z"/>
  <g>
  </g>
  <g style="clip-path:url(#id1)">
   <g>
    <g id="_2999854046160">
     <path class="fil3" d="M16014 12116l-624 0 0 -2037 -1100 1935c-27,49 -65,86 -113,112 -49,25 -101,38 -157,38 -54,0 -105,-13 -151,-38 -47,-26 -84,-63 -111,-112l-1105 -1935 0 2037 -620 0 0 -3155c0,-72 21,-135 63,-191 43,-56 98,-93 167,-112 33,-8 66,-11 100,-8 33,2 65,9 96,21 31,12 59,28 84,50 27,22 48,48 65,78l1412 2454 1412 -2454c37,-60 87,-104 151,-129 65,-26 132,-30 202,-12 67,19 122,56 165,112 43,56 64,119 64,191l0 3155z"/>
     <path id="1" class="fil3" d="M21049 11110c0,122 -15,232 -46,330 -31,98 -72,184 -122,259 -52,75 -111,138 -179,191 -69,52 -140,95 -213,129 -73,33 -147,58 -223,74 -76,15 -146,23 -213,23l-2393 0 0 -620 2393 0c119,0 211,-35 277,-105 66,-70 100,-164 100,-281 0,-58 -9,-110 -26,-158 -18,-47 -44,-89 -76,-124 -33,-35 -73,-61 -119,-81 -47,-19 -99,-28 -156,-28l-1427 0c-100,0 -208,-18 -324,-54 -116,-36 -224,-93 -323,-173 -100,-80 -182,-184 -248,-312 -66,-129 -99,-286 -99,-473 0,-186 33,-342 99,-471 66,-128 148,-232 248,-312 99,-80 207,-138 323,-174 116,-36 224,-54 324,-54l2111 0 0 620 -2111 0c-118,0 -209,36 -275,107 -66,72 -99,166 -99,284 0,119 33,214 99,283 66,69 157,104 275,104l1427 0 5 0c66,2 137,11 211,27 75,17 150,43 223,77 74,35 145,80 212,133 67,54 126,117 178,192 51,75 92,161 122,257 31,97 45,207 45,330z"/>
     <path id="2" class="fil3" d="M25950 12116l-620 0 0 -839 -2181 0 0 839 -620 0 0 -1710c0,-249 43,-480 129,-689 86,-210 205,-391 358,-541 152,-152 333,-269 541,-354 209,-83 436,-126 683,-126l1397 0c43,0 83,8 122,24 38,16 71,38 100,67 28,28 51,61 67,100 16,38 24,79 24,122l0 3107zm-2801 -1459l2181 0 0 -1341 -1090 0c-20,0 -60,3 -121,9 -61,5 -132,19 -212,41 -80,22 -165,56 -254,103 -89,46 -171,110 -246,190 -74,82 -136,184 -185,305 -48,121 -73,268 -73,442l0 251z"/>
     <g>
      <path class="fil4" d="M23326 9543c31,0 126,5 147,-7 40,-22 26,-86 -23,-89 -19,-1 -38,11 -46,31 -4,11 -1,47 -33,44 -28,-2 -27,-30 -23,-49 25,-114 205,-108 203,29 0,42 -31,76 -67,90 -29,12 -111,6 -152,6l0 -53 -6 -2z"/>
      <path class="fil4" d="M23186 9374c45,0 61,2 88,-19 19,-14 38,-39 39,-70 1,-19 -1,-35 -7,-47 -22,-49 -58,-58 -107,-58l1 -55c55,0 79,5 121,38 31,25 47,75 47,115 0,95 -73,153 -168,153l0 -52c-1,-1 -2,-1 -2,-1 -1,-1 -1,-1 -2,-1l-10 -3z"/>
      <path class="fil4" d="M23188 10011l0 -57c33,1 41,10 81,-12 66,-35 58,-159 -29,-177l0 -48c3,-16 -3,10 1,-4l2 -4c39,4 77,34 95,58 52,70 34,171 -31,216 -14,10 -31,20 -50,25 -9,2 -24,4 -33,5 -16,2 -22,-2 -36,-2z"/>
      <path class="fil4" d="M22781 9374c0,17 -4,45 2,57l-212 0c-62,0 -44,-42 -33,-51 14,-10 80,-6 101,-6 47,0 95,0 142,0z"/>
      <path class="fil4" d="M23200 9125l-1 55c-20,9 -60,11 -77,66 -6,21 -1,44 -18,54 -20,11 -41,-3 -42,-24 -3,-74 64,-150 138,-151z"/>
      <path class="fil4" d="M22852 9705l196 0c0,10 0,20 0,30 0,5 1,12 1,16 -1,9 -1,7 -5,11l-199 0 7 -2 0 -55z"/>
      <path class="fil4" d="M22721 9705c4,4 -6,3 7,3l0 52c-2,0 -5,-1 -6,0l-6 1c0,1 -1,1 -2,1 -22,0 -147,2 -162,-1 -15,-3 -26,-13 -25,-30 3,-34 49,-26 85,-26 36,0 73,0 109,0z"/>
      <path class="fil4" d="M23044 9762c4,-4 4,-2 5,-11 0,-4 -1,-11 -1,-16 0,-10 0,-20 0,-30 36,0 176,-5 195,4l-2 4c-4,14 2,-12 -1,4l0 48c-26,-7 -157,-3 -196,-3z"/>
      <path class="fil4" d="M23188 9954l0 57c-22,-9 -57,-12 -87,-49 -53,-66 -50,-144 -2,-127 34,11 2,72 64,108 8,4 17,6 25,11z"/>
      <path class="fil4" d="M22781 9374l162 0 0 55c12,0 3,0 7,2l-167 0c-6,-12 -2,-40 -2,-57z"/>
      <path class="fil4" d="M23195 9543c3,3 3,2 4,9 1,3 0,12 0,16 0,10 0,20 0,30l-151 0c-29,-2 -33,-46 -3,-54 14,-3 34,-1 49,-1 34,0 67,0 101,0z"/>
      <path class="fil4" d="M22943 9374l164 0c-5,3 -6,2 -13,2 6,15 -5,44 6,55l-150 0c-4,-2 5,-2 -7,-2l0 -55z"/>
      <path class="fil4" d="M23195 9543l131 0 6 2 0 53 -133 0c0,-10 0,-20 0,-30 0,-4 1,-13 0,-16 -1,-7 -1,-6 -4,-9z"/>
      <path class="fil4" d="M22721 9705l131 0 0 55 -7 2 -131 0c1,0 2,0 2,-1l6 -1c1,-1 4,0 6,0l0 -52c-13,0 -3,1 -7,-3z"/>
      <path class="fil4" d="M23107 9374l79 0 10 3c1,0 1,0 2,1 0,0 1,0 2,1l0 52 -100 0c-11,-11 0,-40 -6,-55 7,0 8,1 13,-2z"/>
     </g>
     <g>
      <path class="fil4" d="M25550 9037c0,-7 2,-20 3,-26 5,-23 16,-43 33,-59 15,-16 35,-28 58,-32 88,-19 162,56 144,143 -5,23 -16,43 -32,59 -11,10 -22,18 -36,24 -25,12 -48,14 -75,8 -55,-11 -95,-62 -95,-117zm-290 -2l159 49c7,2 155,44 158,47 3,3 10,31 12,38 3,13 7,26 11,40 8,27 16,54 24,80l48 159c1,-9 73,-253 81,-279 2,-7 3,-13 5,-20 2,-6 4,-16 7,-19 2,-1 34,-10 40,-12l200 -58c14,-4 27,-8 40,-11 7,-3 34,-8 38,-14 -8,0 -206,-58 -239,-68 -14,-4 -26,-8 -40,-12 -47,-13 -39,-7 -46,-30 -2,-7 -3,-13 -5,-20 -8,-25 -80,-270 -81,-279l-3 0c-1,9 -72,251 -80,278 -14,49 -3,37 -50,51l-259 75c-7,2 -13,5 -20,5z"/>
      <path class="fil4" d="M25271 8935c9,1 16,4 24,6 8,2 15,4 23,6l16 -48c7,-16 14,-31 22,-44 8,-14 17,-28 27,-40 41,-51 68,-71 125,-103l72 -28c-1,-8 -3,-15 -5,-23 -2,-8 -6,-15 -6,-23 -24,0 -93,33 -117,49 -17,11 -38,25 -53,39 -48,45 -83,90 -109,152 -5,11 -19,46 -19,57z"/>
      <path class="fil4" d="M25761 9390c2,9 11,40 11,46 15,-1 43,-12 56,-18 35,-14 86,-45 114,-71l21 -18c35,-35 70,-88 89,-133 4,-11 18,-46 18,-58l-47 -11 -16 48c-2,5 -3,7 -5,11l-17 33c-27,45 -46,65 -83,98 -30,27 -77,51 -116,64 -7,3 -19,6 -25,9z"/>
      <path class="fil4" d="M25761 8684c18,9 45,10 92,39 25,15 36,23 57,41 28,23 56,59 74,90 4,6 8,14 12,20 11,19 24,67 27,73l47 -12c0,-22 -30,-84 -43,-105 -7,-12 -28,-44 -37,-54l-18 -21c-11,-13 -25,-24 -38,-36 -26,-23 -72,-49 -105,-63 -11,-5 -45,-18 -57,-18 0,6 -9,37 -11,46z"/>
      <path class="fil4" d="M25271 9138c1,23 30,85 43,106 8,15 33,51 46,65 24,26 26,25 48,46 9,9 43,31 54,38 23,14 81,41 107,43 0,-6 9,-37 11,-46l-47 -17c-15,-5 -32,-14 -45,-22 -13,-8 -27,-17 -39,-26 -50,-41 -90,-88 -114,-149 -4,-8 -6,-15 -9,-23 -2,-8 -5,-20 -8,-26 -9,2 -40,11 -47,11z"/>
      <path class="fil4" d="M25646 9013l49 0 0 48 -49 0 0 -48zm-48 21c0,25 5,38 21,53 6,7 9,10 19,15 28,14 61,9 83,-13 50,-50 9,-125 -47,-125 -44,0 -76,32 -76,70z"/>
      <path class="fil4" d="M25424 9283l129 -63c0,-8 -13,-49 -14,-51 -3,-3 -20,-7 -25,-8 -7,-2 -18,-6 -27,-6l-63 128z"/>
      <path class="fil4" d="M25788 9221l129 63 -63 -129c-9,0 -19,4 -26,6 -30,9 -24,0 -33,32 -3,8 -7,19 -7,28z"/>
      <path class="fil4" d="M25788 8854c0,8 4,18 6,25 9,34 4,25 33,34 8,2 18,6 27,6l64 -128 -130 63z"/>
      <path class="fil4" d="M25488 8919c6,0 48,-11 51,-14 2,-2 14,-44 14,-52l-129 -63 64 129z"/>
     </g>
     <path class="fil4" d="M15319 9749c0,59 35,158 55,199 62,129 143,197 276,226 109,23 169,-4 224,-4 5,21 12,36 19,56 7,22 10,37 15,65 8,57 -1,111 43,111 42,0 36,-38 36,-57 0,-148 -67,-228 -79,-267 -17,-50 -11,-54 -41,-132 -45,-120 -144,-215 -274,-242 -26,-6 -46,-6 -72,-10 -33,-5 -122,7 -156,13 -21,4 -46,17 -46,42z"/>
     <g>
      <path class="fil4" d="M20258 9076l-494 -18c-24,0 -24,-34 -1,-33l496 17c2,-62 77,-132 153,-129 41,1 65,7 97,29 5,4 6,5 10,8 100,84 55,235 -68,261 -52,11 -107,-3 -144,-38 -14,-13 -22,-20 -33,-42 -7,-14 -16,-35 -16,-55zm-66 99c49,96 164,148 282,124 106,-21 191,-117 195,-222 1,-48 -5,-68 -20,-107 -15,-37 -61,-89 -98,-110 -8,-4 -13,-8 -21,-11 -40,-17 -60,-25 -110,-26 -99,-4 -184,53 -220,114 -138,-5 -277,-10 -415,-15 -53,-2 -160,-11 -201,-2 -115,28 -130,188 -7,230 26,8 164,9 202,11 138,4 275,9 413,14z"/>
      <path class="fil4" d="M20400 9180c32,1 58,1 86,-20 121,-87 15,-254 -118,-205 -12,4 -18,9 -27,15 -16,12 -24,20 -35,40 -44,80 25,168 94,170z"/>
      <path class="fil4" d="M19840 8882c11,0 19,-6 19,-17l3 -77c0,-24 -37,-25 -37,-2l-3 78c0,10 7,18 18,18z"/>
      <path class="fil4" d="M19995 8887c11,1 19,-9 19,-14l3 -80c1,-24 -36,-25 -37,-1l-3 77c0,11 7,18 18,18z"/>
      <path class="fil4" d="M19682 8876c13,1 21,-4 22,-16l2 -78c1,-23 -36,-25 -37,-1l-2 75c-1,9 7,20 15,20z"/>
      <path class="fil4" d="M20148 8893c13,0 21,-7 22,-19l2 -73c1,-29 -36,-23 -37,-8l-2 81c-1,10 6,18 15,19z"/>
      <path class="fil4" d="M19916 8885c25,1 22,-28 23,-46 1,-34 -39,-30 -39,-6 -1,15 -7,51 16,52z"/>
      <path class="fil4" d="M19761 8879c26,1 22,-29 23,-50 0,-22 -39,-35 -40,8 -1,14 -3,42 17,42z"/>
      <path class="fil4" d="M20072 8890c24,1 19,-24 20,-52 1,-26 -36,-23 -37,1 -1,19 -7,50 17,51z"/>
     </g>
     <g>
      <path class="fil4" d="M15711 8801c-48,-33 -103,-35 -146,6 -6,6 -12,14 -17,20 -62,-31 -133,16 -135,80l2 20c-21,1 -46,18 -57,31 -44,55 -16,126 31,146 23,9 37,11 62,6 9,-3 13,-6 21,-8 7,26 68,73 137,46 19,-7 24,-15 33,-21 17,9 43,32 80,15 32,50 112,64 167,16 4,-4 10,-12 13,-17 20,-29 17,-4 58,-34 11,-8 21,-19 29,-32 25,-43 21,-92 -10,-130 -13,-16 -6,-4 -6,-23 1,-35 -25,-71 -53,-74 -1,-13 -6,-31 -11,-41 -28,-60 -103,-83 -159,-48 -9,5 -15,11 -22,17 -6,6 -15,17 -17,25z"/>
      <path class="fil4" d="M15620 9283c-1,30 24,63 53,64 20,0 36,-1 51,-15 22,-22 25,-56 9,-83 -5,-9 -9,-16 -14,-25 -13,-23 -19,-43 -37,-43 -14,-1 -24,25 -37,45 -9,14 -25,35 -25,57z"/>
      <path class="fil4" d="M15370 9245c-1,57 64,83 104,49 21,-19 26,-56 10,-82l-28 -48c-10,-18 -10,-21 -24,-22 -14,0 -24,25 -37,46 -9,14 -25,35 -25,57z"/>
      <path class="fil4" d="M15463 9386c0,18 0,29 14,44 35,34 85,4 86,-30 0,-33 -12,-43 -30,-75 -1,-2 -5,-8 -7,-10 -19,-18 -34,15 -42,27 -8,14 -21,31 -21,44z"/>
      <path class="fil4" d="M15944 9319l10 0c34,1 58,-42 40,-77l-23 -41c-6,-10 -8,-15 -20,-15 -14,-1 -19,14 -28,29 -16,24 -35,48 -16,81 6,10 21,22 37,23z"/>
      <path class="fil4" d="M15780 9394c-2,95 141,61 89,-30 -12,-21 -32,-73 -56,-34 -4,7 -8,13 -12,20 -7,10 -21,28 -21,44z"/>
     </g>
     <path class="fil4" d="M22666 11841c0,25 5,54 15,77 7,15 20,38 32,50 18,20 30,32 58,46 25,12 51,19 77,19l12 0c50,-2 96,-25 131,-67 7,-8 8,-9 15,-20 8,-13 13,-25 18,-39 23,-67 8,-126 -17,-189 -16,-39 -27,-63 -47,-101 -17,-34 -48,-85 -68,-116l-30 -45c-3,-4 -13,-19 -14,-23l-59 91 -39 70c-3,4 -4,8 -6,12 -8,13 -24,48 -31,62 -15,36 -39,100 -44,139 -1,10 -3,23 -3,34z"/>
     <path class="fil4" d="M24039 10474c0,24 -1,32 18,51 12,12 16,20 27,31 20,20 39,37 58,57 11,12 14,19 27,31 14,14 20,13 20,37 1,38 0,78 0,116 -34,-23 -122,-138 -158,-138 -35,0 -69,8 -69,61 0,44 108,116 139,161 -38,0 -75,0 -112,1 -31,0 -27,-2 -72,-44 -19,-18 -37,-36 -55,-55 -36,-36 -49,-48 -84,-48 -31,0 -50,28 -50,66 0,32 42,56 61,74 15,14 56,53 66,68 -8,12 -54,57 -67,68 -41,34 -60,44 -60,89 0,38 58,76 103,30l119 -111c14,-15 11,-19 39,-19 38,0 77,1 115,1 -33,50 -142,121 -142,165 0,37 46,98 118,26l109 -107c0,39 0,77 0,116 0,30 -7,27 -45,69 -20,23 -105,95 -105,126 0,38 16,66 58,66 41,0 60,-38 81,-61 15,-16 57,-60 72,-70 5,17 52,57 67,72 29,30 35,59 87,59 35,0 76,-55 30,-103l-112 -119c-15,-15 -18,-11 -18,-39 0,-39 0,-77 0,-116 48,32 120,142 169,142 30,0 58,-24 58,-65 0,-42 -114,-125 -138,-161 37,0 74,-1 111,-1 28,0 25,4 39,19 12,12 18,17 31,27 19,15 39,39 58,57 13,14 48,47 68,47 37,0 65,-15 65,-57 0,-55 -85,-88 -127,-150 47,-69 127,-88 127,-158 0,-38 -58,-73 -101,-31 -11,11 -19,15 -30,27 -19,18 -39,41 -58,57 -68,57 -12,43 -183,43 34,-51 138,-113 138,-165 0,-32 -21,-53 -49,-58 -36,-6 -47,14 -67,34 -14,14 -94,101 -111,105 0,-37 0,-75 0,-112 0,-36 9,-23 46,-69l84 -89c36,-36 27,-103 -45,-103 -30,0 -69,56 -107,93 -11,12 -27,21 -32,38 -55,-37 -104,-131 -146,-131 -37,0 -65,19 -65,50z"/>
     <g>
      <path class="fil4" d="M25137 10997c1,42 8,66 26,99 25,44 76,81 126,90 31,6 91,4 126,3 6,0 5,-7 8,-20l29 -143c2,-9 3,-16 13,-17l138 -3c27,-1 4,43 -3,62 -3,8 -5,15 -8,23 -2,8 -5,17 -8,24 35,-1 123,-14 100,21 -6,10 -31,37 -33,47 17,0 34,-1 51,-1 20,-1 81,-3 97,-9 5,-1 13,-4 18,-6l32 -20c68,-51 79,-162 12,-225 -35,-34 -65,-45 -118,-44 -10,0 -18,2 -26,4 -5,1 -19,7 -23,6 -9,-1 -12,-8 -12,-18 -2,-67 -30,-121 -83,-158 -17,-12 -40,-23 -61,-28 -66,-16 -124,0 -174,41 -25,21 -39,44 -52,72 -7,16 -22,8 -59,24 -10,5 -18,9 -28,15 -34,22 -60,54 -75,92 -8,20 -14,42 -13,69z"/>
      <path class="fil4" d="M25446 11188l65 -1c21,0 12,27 8,49l-19 100c6,-5 29,-38 37,-48l101 -134c3,-4 6,-8 9,-13 -18,1 -35,1 -53,2 -56,1 -49,1 -18,-85 2,-6 7,-19 8,-25l-107 2c0,7 -6,30 -8,39 -2,12 -5,26 -8,38 -2,13 -4,25 -7,38 -2,7 -3,12 -4,19 -2,6 -3,13 -4,19z"/>
      <path class="fil4" d="M25822 10763c1,35 38,5 63,-10 7,-5 11,-7 11,-17 0,-10 -10,-14 -16,-12 -6,1 -33,19 -41,23 -5,3 -17,9 -17,16z"/>
      <path class="fil4" d="M25760 10707c0,11 6,14 16,13 10,0 18,-21 27,-36l11 -22c3,-13 -16,-28 -29,-5 -4,8 -25,43 -25,50z"/>
      <path class="fil4" d="M25676 10630l1 60c1,12 29,19 28,-7l-1 -48c-1,-25 -28,-17 -28,-5z"/>
      <path class="fil4" d="M25846 10848c0,9 7,13 11,13l61 -1c5,0 10,-6 10,-13l0 -4c-1,-6 -6,-11 -17,-11l-48 1c-10,0 -17,5 -17,15z"/>
     </g>
     <path class="fil4" d="M12041 11274c0,20 -1,27 15,42 10,10 13,16 22,26 16,16 32,30 47,47 9,10 12,16 23,25 11,12 16,11 16,31 1,31 0,64 0,95 -27,-18 -101,-114 -130,-114 -29,0 -57,7 -57,51 0,36 89,95 114,133 -30,0 -61,0 -92,0 -25,0 -22,-2 -59,-36 -16,-14 -30,-30 -46,-46 -29,-29 -40,-38 -69,-38 -25,0 -41,23 -41,53 0,27 35,47 50,61 13,12 47,45 55,57 -7,10 -44,47 -55,56 -34,28 -50,36 -50,73 0,31 48,62 85,25l98 -92c12,-12 9,-15 32,-15 32,0 64,0 96,0 -28,42 -118,100 -118,136 0,31 38,82 98,22l89 -88c0,31 0,63 0,95 0,25 -6,22 -37,57 -16,19 -86,78 -86,104 0,31 12,54 47,54 35,0 50,-31 67,-50 13,-13 47,-49 60,-58 4,14 42,47 55,60 24,25 28,48 71,48 29,0 63,-45 25,-85l-92 -98c-12,-12 -15,-9 -15,-32 0,-32 0,-64 0,-95 40,26 99,117 139,117 25,0 48,-20 48,-54 0,-34 -94,-103 -114,-133 31,0 61,0 92,0 23,0 20,3 32,15 10,10 14,14 25,23 16,12 33,32 48,47 11,11 40,39 56,39 31,0 54,-13 54,-48 0,-45 -70,-73 -104,-123 38,-57 104,-73 104,-130 0,-31 -48,-61 -83,-26 -10,9 -16,12 -25,22 -16,15 -32,34 -48,47 -56,47 -10,36 -151,36 28,-42 114,-94 114,-136 0,-27 -17,-44 -41,-48 -29,-5 -38,11 -55,28 -11,11 -77,83 -91,86 0,-30 0,-61 0,-92 0,-29 7,-19 38,-57l69 -73c30,-30 22,-85 -37,-85 -25,0 -57,46 -88,77 -9,9 -22,17 -26,31 -46,-31 -86,-108 -120,-108 -31,0 -54,16 -54,41z"/>
     <g>
      <path class="fil4" d="M14071 11809l26 0c90,0 171,-80 171,-187 0,-89 -82,-174 -171,-174 -84,0 -143,36 -176,106 -31,67 -14,146 31,197 22,25 74,58 119,58z"/>
      <path class="fil4" d="M14301 11813c23,5 105,65 128,65 46,0 73,-55 34,-89 -8,-7 -28,-17 -37,-22 -13,-7 -24,-15 -38,-22 -13,-8 -26,-17 -41,-21 -4,16 -12,33 -20,46 -3,6 -9,14 -13,20 -6,8 -10,11 -13,23z"/>
      <path class="fil4" d="M13694 11826c0,31 22,52 49,52 17,0 53,-23 67,-31 22,-13 44,-24 64,-38 -44,-66 -17,-25 -49,-85l-74 41c-28,16 -57,28 -57,61z"/>
      <path class="fil4" d="M14301 11445c2,20 34,36 46,89 12,-1 63,-33 77,-42 23,-14 58,-26 58,-60 0,-33 -30,-53 -50,-53 -17,0 -53,23 -67,31 -15,9 -50,32 -64,35z"/>
      <path class="fil4" d="M13694 11429c0,44 43,55 92,84 9,6 29,18 39,21 8,-15 12,-29 21,-45 9,-15 19,-27 28,-41 -21,-11 -41,-24 -62,-36 -41,-22 -67,-50 -103,-18 -11,10 -15,19 -15,35z"/>
      <path class="fil4" d="M14038 12033c0,53 99,62 99,-7l0 -121c-22,0 -30,3 -49,3 -21,0 -28,-3 -50,-3l0 128z"/>
      <path class="fil4" d="M14038 11225l0 128c22,0 31,-3 50,-3 19,0 27,3 49,3l0 -121c0,-68 -99,-62 -99,-7z"/>
      <path class="fil4" d="M13874 11337c0,51 22,46 30,79 16,-5 55,-44 88,-46 -7,-32 -52,-106 -102,-63 -6,5 -16,19 -16,30z"/>
      <path class="fil4" d="M13874 11905c0,31 11,59 49,59 37,0 56,-47 69,-72 -20,-11 -38,-15 -66,-36 -8,-6 -12,-11 -22,-14 -5,20 -30,45 -30,63z"/>
      <path class="fil4" d="M14183 11888c1,10 26,76 69,76 24,0 72,-28 35,-88 -6,-11 -13,-23 -19,-34 -21,11 -58,44 -85,46z"/>
      <path class="fil4" d="M14183 11370c27,2 64,34 85,46 6,-11 13,-23 19,-34 48,-77 -47,-117 -80,-61 -7,12 -23,36 -24,49z"/>
      <path class="fil4" d="M14360 11678c20,0 60,2 73,-3 41,-14 44,-74 2,-92 -17,-7 -52,-3 -75,-3 7,29 7,69 0,98z"/>
      <path class="fil4" d="M13710 11622c0,67 50,56 102,56l-3 -56c0,-20 3,-24 3,-42l-59 0c-20,0 -43,22 -43,42z"/>
     </g>
     <g>
      <path class="fil4" d="M25608 10039l0 214c0,30 15,64 31,86 33,43 79,63 134,63 25,0 48,-4 66,-11 9,-4 19,-8 26,-13 4,-3 8,-5 12,-8 12,-10 12,-11 21,-20 23,-24 40,-63 40,-98l0 -19c0,-13 -3,-25 -16,-37 -30,-29 -89,-15 -88,46 0,63 -75,65 -103,43 -8,-6 -18,-21 -18,-36l0 -209c0,-12 8,-26 14,-32 3,-3 10,-8 14,-10 13,-7 29,-5 45,-5 20,0 39,16 45,35 6,19 -4,41 18,64 34,36 89,6 89,-32l0 -2c0,-31 0,-50 -14,-80 -7,-13 -13,-23 -22,-34 -24,-31 -72,-55 -113,-55 -36,0 -59,-2 -92,14 -51,25 -89,79 -89,136z"/>
      <path class="fil4" d="M25426 9962c0,-11 1,-20 10,-28 5,-5 15,-10 24,-9 20,0 33,14 33,37 0,24 -35,44 -57,22 -6,-6 -10,-13 -10,-22zm-76 -9c0,28 4,48 20,69 50,70 152,59 189,-16 32,-67 -13,-155 -99,-157 -59,-2 -110,50 -110,104z"/>
     </g>
     <path class="fil4" d="M22653 10748l171 -114c55,-31 62,88 74,178l63 416c13,-29 35,-193 45,-245l115 -682c4,-21 8,-42 10,-63 -46,31 -92,61 -138,92 -146,97 -128,87 -144,-294 -1,-30 -1,-85 -8,-112l-280 186c8,28 18,123 24,161 8,48 14,108 22,158 9,53 16,104 22,159 4,30 8,50 12,80 3,25 6,57 12,80z"/>
     <g>
      <path class="fil4" d="M19804 10242c0,34 11,59 35,78 4,3 5,5 10,7 21,12 6,4 24,28 33,43 108,49 147,1 8,-10 13,-21 14,-22 4,-5 56,-22 56,-90 0,-21 -8,-40 -17,-52 -16,-24 -27,-24 -38,-32 -4,-3 -1,1 -5,-7l-9 -14c-16,-19 -40,-35 -69,-35 -26,0 -42,3 -62,18 -17,13 -20,20 -28,35 -3,4 -1,2 -3,3 -6,5 -20,8 -37,31 -9,12 -18,31 -18,51z"/>
      <path class="fil4" d="M20257 10617c0,19 7,36 19,48 11,12 11,9 18,14 4,3 6,9 11,14l5 6c30,30 80,27 107,-10 13,-18 1,-4 19,-18 5,-4 8,-7 12,-12 7,-11 12,-23 13,-36l0 -11c-2,-21 -13,-41 -32,-53 -16,-10 -7,-15 -31,-31 -33,-23 -77,-12 -97,18 -12,18 -6,6 -19,18 -5,5 -9,9 -13,14 -6,9 -12,24 -12,39z"/>
      <path class="fil4" d="M19804 10655c0,51 31,59 39,67 1,1 3,5 4,7 2,3 3,5 6,7 13,15 30,23 47,24l12 0c22,-2 43,-14 55,-36 0,0 0,0 0,0 1,-1 1,-1 1,-1 4,-6 15,-6 28,-26 20,-30 14,-65 -12,-91 -5,-5 -11,-6 -15,-10 -4,-5 -6,-10 -11,-16 -25,-26 -60,-32 -91,-12 -8,6 -13,11 -18,19 -12,17 -2,4 -20,18 -6,5 -7,6 -12,13 -6,9 -13,22 -13,37z"/>
      <path class="fil4" d="M20339 10390c30,0 8,-41 42,-41 42,0 59,60 17,80 -15,7 -40,4 -60,4 -27,0 -349,-1 -355,1 -21,5 -18,38 5,38l397 0c38,0 76,-38 76,-76 0,-28 -5,-44 -26,-64 -5,-6 -15,-13 -23,-16 -84,-33 -118,74 -73,74z"/>
      <path class="fil4" d="M20298 10185c0,34 26,46 31,51 4,4 17,31 51,31 18,0 36,-11 46,-24 11,-16 14,-11 25,-25 6,-9 9,-18 10,-28l0 -9c-1,-10 -4,-20 -10,-29 -11,-16 -15,-10 -24,-23 -10,-15 -26,-24 -42,-25l-11 0c-10,1 -19,4 -27,10 -10,7 -16,18 -19,21 -4,3 -5,2 -11,8 -4,4 -7,6 -10,11 -4,8 -9,19 -9,31z"/>
      <path class="fil4" d="M20154 10286c0,20 20,28 33,16 9,-8 3,-18 12,-28 15,-18 58,-3 58,36 0,17 -12,31 -24,37 -13,5 -41,3 -57,3 -15,0 -78,-1 -89,2 -21,4 -20,38 4,38l127 0c31,0 60,-22 71,-49 25,-57 -18,-114 -74,-114 -32,0 -61,27 -61,59z"/>
      <path class="fil4" d="M20175 10596c0,23 -19,43 -37,43 -11,0 -25,0 -27,-21 -1,-8 -1,-9 -6,-14 -2,-2 -3,-3 -5,-4 -16,-7 -28,5 -28,17 0,20 5,31 18,44 11,11 25,17 44,17 24,0 40,-10 54,-21 11,-9 25,-36 25,-52 0,-22 0,-37 -16,-57 -15,-20 -37,-33 -63,-33l-104 0c-21,0 -27,27 -11,37 17,10 107,-3 128,5 14,6 28,20 28,39z"/>
      <path class="fil4" d="M20048 10760l43 0c27,0 24,-38 3,-38l-46 0c-23,0 -23,38 0,38z"/>
      <path class="fil4" d="M19845 10453c0,9 8,19 17,19l46 0c23,0 22,-39 0,-39l-44 0c-11,0 -19,9 -19,20z"/>
      <path class="fil4" d="M20113 10161c0,13 6,22 17,22l46 0c21,0 25,-38 -2,-38l-42 0c-9,0 -19,7 -19,16z"/>
     </g>
     <path class="fil4" d="M18819 10549c0,-6 1,-6 3,-11 24,-5 7,3 40,23 13,8 28,11 46,11 3,5 7,6 7,12 -1,20 -51,7 -78,-15 -3,-2 -18,-17 -18,-20zm-23 -63c1,-10 0,-16 12,-16 10,1 8,10 10,20 1,14 1,21 -11,21 -10,0 -11,-15 -11,-25zm134 -190c0,18 3,37 2,44 -10,42 -80,-10 -139,78 -35,53 -25,123 17,164 27,27 61,39 101,40l461 14c47,2 86,-17 107,-54 43,-74 -16,-173 -106,-161 -53,7 -3,-37 -37,-91 -21,-35 -46,-47 -88,-49 -25,0 -39,19 -47,-12 -15,-54 -66,-99 -121,-101 -45,-1 -77,9 -107,37 -19,18 -42,55 -43,91z"/>
     <g>
      <path class="fil4" d="M15713 11570l0 471c0,50 84,54 84,-4l0 -208 161 0c66,0 66,-86 0,-86l-161 0 0 -165 243 0c55,0 61,-52 35,-76 -8,-7 -20,-10 -35,-10l-233 0c-31,0 -47,7 -65,22 -13,10 -29,33 -29,56z"/>
      <path class="fil4" d="M15420 11621c0,-27 18,-43 34,-43 15,0 26,-2 39,12 21,23 9,70 -31,70 -21,0 -42,-15 -42,-39zm-84 -12c0,26 0,42 12,65 10,20 18,30 33,42 86,70 206,4 206,-89 0,-26 0,-42 -12,-66 -9,-18 -14,-22 -27,-34 -28,-30 -72,-40 -112,-32 -55,10 -100,61 -100,114z"/>
     </g>
     <g>
      <path class="fil4" d="M12806 9666c27,0 109,-5 127,6 34,19 22,74 -19,76 -17,1 -34,-10 -40,-27 -4,-9 -1,-40 -29,-38 -24,2 -23,26 -19,43 21,98 175,92 174,-25 0,-36 -27,-65 -58,-78 -25,-10 -95,-4 -130,-4l0 45 -6 2z"/>
      <path class="fil4" d="M12687 9811c38,0 52,-1 75,16 17,12 33,34 34,60 1,16 -2,30 -7,41 -19,42 -49,50 -91,50l0 47c48,0 68,-5 104,-33 27,-22 41,-64 41,-99 0,-82 -63,-131 -145,-131l0 45c0,0 -1,1 -1,1 -1,0 -1,0 -2,0l-8 3z"/>
      <path class="fil4" d="M12688 9264l1 49c27,-1 35,-8 69,10 57,30 50,136 -25,152l0 42c2,13 -3,-9 1,3l1 3c34,-3 66,-29 82,-50 45,-60 30,-146 -26,-185 -13,-8 -27,-17 -43,-21 -9,-2 -21,-4 -29,-5 -13,-2 -19,2 -31,2z"/>
      <path class="fil4" d="M12339 9811c0,-14 -4,-39 2,-49l-183 0c-52,-1 -37,36 -28,44 12,8 69,5 87,5 41,0 81,0 122,0z"/>
      <path class="fil4" d="M12698 10025l0 -47c-17,-8 -52,-10 -66,-58 -6,-17 -1,-37 -16,-45 -17,-10 -35,2 -36,20 -2,63 55,128 118,130z"/>
      <path class="fil4" d="M12400 9526l168 0c0,-8 0,-17 0,-25 0,-4 1,-10 1,-14 -1,-7 -1,-6 -4,-10l-171 0 6 2 0 47z"/>
      <path class="fil4" d="M12287 9526c4,-2 -5,-2 6,-2l0 -44c-1,0 -4,0 -5,0l-5 -2c0,0 -1,0 -1,-1 -19,0 -127,-1 -140,2 -13,2 -22,11 -21,26 3,28 41,21 73,21 31,0 62,0 93,0z"/>
      <path class="fil4" d="M12565 9477c3,4 3,3 4,10 0,4 -1,10 -1,14 0,8 0,17 0,25 31,0 151,5 167,-3l-1 -3c-4,-12 1,10 -1,-3l0 -42c-23,6 -135,2 -168,2z"/>
      <path class="fil4" d="M12689 9313l-1 -49c-18,7 -49,10 -75,42 -45,57 -43,123 -1,109 29,-9 1,-62 54,-93 7,-3 15,-5 23,-9z"/>
      <path class="fil4" d="M12339 9811l139 0 0 -47c10,0 3,0 6,-2l-143 0c-6,10 -2,35 -2,49z"/>
      <path class="fil4" d="M12694 9666c3,-3 3,-2 4,-8 0,-3 0,-11 0,-14 0,-8 0,-17 0,-25l-130 0c-24,2 -28,39 -2,46 12,3 28,1 42,1 28,0 57,0 86,0z"/>
      <path class="fil4" d="M12478 9811l141 0c-4,-3 -5,-2 -12,-2 6,-13 -4,-38 6,-47l-129 0c-3,2 4,2 -6,2l0 47z"/>
      <path class="fil4" d="M12694 9666l112 0 6 -2 0 -45 -114 0c0,8 0,17 0,25 0,3 0,11 0,14 -1,6 -1,5 -4,8z"/>
      <path class="fil4" d="M12287 9526l113 0 0 -47 -6 -2 -112 0c0,1 1,1 1,1l5 2c1,0 4,0 5,0l0 44c-11,0 -2,0 -6,2z"/>
      <path class="fil4" d="M12619 9811l68 0 8 -3c1,0 1,0 2,0 0,0 1,-1 1,-1l0 -45 -85 0c-10,9 0,34 -6,47 7,0 8,-1 12,2z"/>
     </g>
     <g>
      <path class="fil4" d="M17858 9190c0,-6 2,-19 3,-26 5,-23 17,-43 33,-60 16,-15 36,-27 58,-32 90,-19 165,57 147,144 -5,24 -17,44 -33,60 -10,11 -22,19 -36,25 -25,12 -49,14 -76,8 -56,-11 -96,-63 -96,-119zm-294 -1l161 49c7,2 157,45 160,47 3,3 10,32 12,39 4,13 8,26 12,40 8,28 16,55 23,81l49 161c1,-9 74,-256 82,-282 2,-7 3,-13 6,-20 1,-6 3,-17 7,-19 2,-2 34,-11 40,-12l202 -59c14,-4 27,-8 40,-12 8,-2 35,-8 39,-13 -8,0 -208,-60 -242,-69 -14,-4 -26,-8 -41,-12 -47,-14 -39,-7 -46,-31 -2,-7 -3,-13 -5,-20 -8,-26 -81,-273 -82,-282l-3 0c-1,9 -73,253 -81,281 -14,50 -2,37 -51,51l-261 76c-7,2 -13,5 -21,6z"/>
      <path class="fil4" d="M17576 9088c8,0 15,3 23,5 9,2 16,4 24,6l17 -48c6,-16 13,-31 22,-45 8,-14 17,-28 27,-40 41,-51 69,-72 126,-105l74 -27c-2,-8 -4,-15 -6,-24 -2,-8 -6,-15 -6,-24 -24,1 -94,34 -118,50 -17,12 -39,26 -54,40 -49,45 -84,91 -111,154 -4,11 -18,46 -18,58z"/>
      <path class="fil4" d="M18071 9547c2,9 11,41 11,47 15,-1 44,-12 57,-18 36,-14 87,-45 116,-72l20 -18c36,-36 71,-89 90,-135 5,-11 19,-46 19,-58l-47 -11 -17 48c-2,5 -3,7 -5,11l-17 34c-27,45 -46,65 -84,98 -31,28 -77,53 -117,66 -7,2 -20,5 -26,8z"/>
      <path class="fil4" d="M18071 8834c19,8 46,10 93,38 26,16 36,24 58,42 28,23 56,60 75,91 4,7 8,14 12,21 11,19 25,67 28,73l47 -12c-1,-22 -31,-85 -43,-106 -7,-12 -29,-44 -38,-55l-19 -21c-11,-13 -25,-24 -38,-36 -26,-23 -72,-50 -106,-64 -11,-5 -45,-18 -58,-19 0,7 -9,38 -11,48z"/>
      <path class="fil4" d="M17576 9293c0,23 30,85 43,107 9,15 33,51 47,65 24,27 26,26 48,47 10,9 44,32 55,39 23,14 81,41 108,43 0,-6 9,-38 12,-47l-49 -17c-14,-5 -32,-14 -45,-22 -13,-8 -28,-17 -40,-26 -50,-41 -90,-89 -115,-151 -3,-8 -6,-15 -9,-24 -2,-7 -5,-19 -8,-25 -9,2 -41,11 -47,11z"/>
      <path class="fil4" d="M17955 9166l49 0 0 49 -49 0 0 -49zm-49 21c0,25 6,39 21,54 7,7 10,11 20,15 28,14 62,9 84,-13 50,-51 9,-126 -48,-126 -45,0 -77,32 -77,70z"/>
      <path class="fil4" d="M17730 9439l131 -63c0,-9 -13,-50 -15,-52 -2,-3 -19,-7 -24,-8 -8,-2 -19,-7 -28,-7l-64 130z"/>
      <path class="fil4" d="M18099 9376l130 64 -64 -130c-8,-1 -19,3 -26,6 -30,9 -25,0 -34,32 -2,8 -6,19 -6,28z"/>
      <path class="fil4" d="M18099 9005c0,9 4,19 6,26 9,34 3,25 33,34 8,2 18,6 28,6l64 -130 -131 64z"/>
      <path class="fil4" d="M17795 9071c7,0 49,-11 51,-14 2,-2 15,-44 15,-52l-130 -65 64 131z"/>
     </g>
     <g>
      <path class="fil4" d="M14705 10704l0 -586c0,-29 41,-31 41,-3l0 589c78,0 168,86 168,176 0,49 -6,78 -32,116 -4,6 -5,7 -10,13 -100,122 -290,74 -327,-70 -16,-62 -1,-127 41,-172 16,-18 24,-28 50,-41 18,-9 43,-21 69,-22zm-127 -74c-117,62 -176,201 -142,340 31,124 155,221 286,221 59,0 84,-8 131,-28 46,-18 108,-75 133,-120 5,-10 9,-15 13,-26 19,-47 28,-72 28,-131 0,-118 -75,-216 -151,-256 0,-165 0,-329 0,-493 0,-63 7,-191 -7,-239 -39,-135 -239,-146 -285,2 -10,30 -6,195 -6,240 0,163 0,326 0,490z"/>
      <path class="fil4" d="M14110 10129c0,34 22,92 33,115 38,76 88,115 169,132 67,13 104,-2 137,-2 3,12 7,20 11,32 5,13 7,21 10,38 5,33 -1,65 26,65 25,0 22,-23 22,-34 0,-86 -41,-132 -49,-155 -10,-29 -6,-31 -24,-77 -28,-70 -88,-125 -168,-141 -15,-3 -28,-3 -44,-5 -20,-3 -74,3 -95,7 -13,2 -28,10 -28,25z"/>
      <path class="fil4" d="M14581 10877c0,38 2,69 28,101 115,140 318,7 251,-148 -6,-14 -12,-22 -20,-32 -15,-19 -26,-28 -51,-40 -102,-49 -208,37 -208,119z"/>
      <path class="fil4" d="M14928 10200c0,14 9,22 22,22l96 0c30,0 30,-44 0,-44l-96 0c-13,0 -22,9 -22,22z"/>
      <path class="fil4" d="M14928 10385c0,13 13,22 19,22l99 0c30,0 30,-44 0,-44l-96 0c-13,0 -22,8 -22,22z"/>
      <path class="fil4" d="M14928 10013c0,15 6,25 22,25l96 0c30,0 30,-44 0,-44l-93 0c-12,0 -25,9 -25,19z"/>
      <path class="fil4" d="M14928 10566c0,15 10,25 25,25l91 0c35,0 27,-44 8,-44l-102 0c-12,0 -22,9 -22,19z"/>
      <path class="fil4" d="M14928 10291c0,30 35,25 58,25 43,0 35,-47 5,-47 -18,0 -63,-6 -63,22z"/>
      <path class="fil4" d="M14928 10107c0,31 38,24 63,24 28,0 43,-46 -11,-46 -18,0 -52,-3 -52,22z"/>
      <path class="fil4" d="M14928 10475c0,30 30,23 66,23 32,0 27,-45 -3,-45 -24,0 -63,-6 -63,22z"/>
     </g>
     <g>
      <path class="fil4" d="M13384 10745c-35,-25 -75,-26 -106,4 -5,5 -9,10 -12,15 -46,-23 -98,12 -99,58l1 14c-15,1 -33,13 -41,23 -32,40 -12,92 22,106 17,7 28,9 46,5 6,-2 10,-5 15,-6 5,19 49,53 100,34 14,-6 18,-12 24,-16 12,7 32,24 58,11 24,37 82,47 122,12 3,-3 7,-9 10,-12 14,-21 12,-4 42,-25 8,-6 15,-14 21,-23 18,-32 15,-67 -7,-95 -10,-12 -5,-3 -5,-17 1,-26 -18,-52 -39,-54 0,-10 -4,-23 -7,-30 -21,-44 -76,-61 -117,-35 -6,4 -10,8 -16,13 -4,4 -10,12 -12,18z"/>
      <path class="fil4" d="M13318 11096c-1,22 18,46 39,47 14,0 26,-1 37,-11 16,-16 18,-41 7,-61 -4,-6 -7,-12 -11,-18 -9,-16 -14,-31 -27,-32 -10,0 -18,19 -27,33 -6,11 -18,26 -18,42z"/>
      <path class="fil4" d="M13135 11068c0,42 48,61 77,36 15,-14 18,-40 7,-60l-20 -35c-8,-13 -8,-15 -18,-15 -10,-1 -18,18 -27,33 -7,10 -18,26 -19,41z"/>
      <path class="fil4" d="M13203 11171c0,13 0,21 11,32 25,25 62,3 62,-22 1,-24 -8,-31 -22,-55 0,-1 -3,-5 -4,-6 -15,-14 -25,10 -31,19 -6,10 -15,22 -16,32z"/>
      <path class="fil4" d="M13554 11122l7 0c25,1 43,-31 29,-56l-17 -30c-4,-7 -5,-11 -14,-11 -10,0 -14,10 -20,21 -12,18 -26,36 -12,60 5,7 16,16 27,16z"/>
      <path class="fil4" d="M13435 11177c-2,69 102,44 64,-22 -8,-15 -23,-53 -40,-25 -3,6 -6,10 -9,15 -5,7 -15,21 -15,32z"/>
     </g>
     <g>
      <path class="fil4" d="M18917 8788c-35,-25 -75,-26 -106,4 -5,5 -9,10 -12,15 -46,-23 -98,11 -99,58l2 14c-15,1 -34,13 -42,23 -32,40 -12,92 22,106 17,7 28,8 46,4 6,-1 10,-4 15,-5 5,19 49,53 100,34 14,-6 18,-12 24,-16 12,7 32,23 58,11 24,36 82,47 122,11 3,-2 7,-8 10,-11 14,-21 12,-4 42,-25 8,-6 15,-14 21,-23 18,-32 15,-68 -7,-96 -10,-11 -5,-2 -5,-17 1,-25 -18,-51 -39,-53 0,-10 -4,-23 -7,-30 -21,-44 -76,-61 -117,-35 -6,4 -10,8 -16,13 -4,3 -10,12 -12,18z"/>
      <path class="fil4" d="M18851 9139c-1,22 18,46 39,46 14,1 26,0 37,-11 16,-15 18,-40 7,-60 -4,-7 -7,-12 -11,-18 -9,-17 -14,-32 -27,-32 -10,0 -18,18 -27,33 -6,11 -18,26 -18,42z"/>
      <path class="fil4" d="M18669 9111c-1,42 47,61 76,35 15,-13 18,-40 7,-59l-20 -35c-8,-13 -8,-15 -18,-16 -10,0 -18,19 -27,33 -7,11 -18,26 -18,42z"/>
      <path class="fil4" d="M18736 9214c0,13 0,21 11,32 25,25 62,3 62,-22 1,-24 -8,-31 -22,-55 0,-1 -3,-6 -4,-7 -15,-13 -25,11 -31,20 -6,10 -15,22 -16,32z"/>
      <path class="fil4" d="M19087 9165l7 0c25,0 43,-31 30,-56l-18 -30c-4,-7 -5,-11 -14,-11 -10,0 -14,10 -20,21 -12,18 -26,36 -12,60 5,7 16,16 27,16z"/>
      <path class="fil4" d="M18968 9220c-2,69 102,44 64,-22 -8,-15 -23,-53 -40,-25 -3,5 -6,9 -9,14 -5,8 -15,21 -15,33z"/>
     </g>
     <path class="fil4" d="M12135 10696c8,29 23,61 42,85 12,15 34,37 51,48 28,17 45,28 81,35 33,6 65,5 95,-2l14 -4c56,-18 103,-58 130,-117 6,-11 7,-13 11,-28 5,-17 9,-32 10,-51 5,-84 -31,-147 -78,-212 -30,-41 -51,-64 -85,-102 -31,-34 -81,-83 -115,-113l-47 -43c-5,-3 -22,-18 -24,-21l-40 122 -24 93c-1,5 -2,10 -3,16 -5,17 -13,63 -16,81 -7,45 -15,126 -9,173 2,12 3,27 7,40z"/>
     <g>
      <path class="fil4" d="M20302 12182l27 0c89,0 170,-80 170,-187 0,-89 -82,-174 -170,-174 -85,0 -144,36 -177,106 -31,67 -14,146 31,197 22,25 74,58 119,58z"/>
      <path class="fil4" d="M20532 12186c23,5 105,65 128,65 46,0 73,-55 34,-89 -8,-7 -28,-17 -37,-22 -13,-7 -24,-15 -37,-22 -14,-8 -27,-17 -42,-21 -4,16 -12,33 -20,46 -3,6 -9,14 -13,20 -6,7 -10,11 -13,23z"/>
      <path class="fil4" d="M19925 12199c0,31 22,52 49,52 17,0 53,-23 67,-31 22,-13 44,-24 64,-38 -44,-66 -17,-25 -49,-85l-74 41c-28,16 -57,28 -57,61z"/>
      <path class="fil4" d="M20532 11818c2,19 34,36 46,89 12,-1 63,-33 77,-42 23,-14 58,-26 58,-60 0,-33 -29,-53 -50,-53 -17,0 -53,23 -67,31 -15,9 -49,32 -64,35z"/>
      <path class="fil4" d="M19925 11802c0,44 43,55 92,84 10,6 29,18 39,21 8,-15 12,-29 21,-45 9,-15 19,-27 28,-41 -21,-11 -41,-24 -62,-36 -41,-22 -67,-50 -103,-18 -11,10 -15,19 -15,35z"/>
      <path class="fil4" d="M20269 12406c0,53 99,62 99,-7l0 -121c-22,0 -30,3 -49,3 -21,0 -28,-3 -50,-3l0 128z"/>
      <path class="fil4" d="M20269 11598l0 128c22,0 31,-3 50,-3 19,0 27,3 49,3l0 -121c0,-68 -99,-62 -99,-7z"/>
      <path class="fil4" d="M20105 11710c0,51 22,46 30,78 16,-4 55,-43 88,-46 -7,-31 -52,-105 -102,-63 -6,6 -16,20 -16,31z"/>
      <path class="fil4" d="M20105 12278c0,31 11,59 50,59 36,0 55,-47 68,-73 -20,-11 -38,-14 -66,-35 -7,-6 -12,-11 -22,-14 -5,20 -30,44 -30,63z"/>
      <path class="fil4" d="M20414 12261c1,10 26,76 69,76 24,0 72,-28 35,-88 -6,-11 -13,-23 -19,-34 -21,11 -58,44 -85,46z"/>
      <path class="fil4" d="M20414 11742c27,3 64,35 85,46 6,-10 13,-22 19,-33 48,-77 -47,-117 -80,-61 -7,12 -23,35 -24,48z"/>
      <path class="fil4" d="M20591 12051c20,0 60,2 73,-3 41,-14 44,-74 2,-92 -17,-7 -52,-3 -75,-3 7,29 7,69 0,98z"/>
      <path class="fil4" d="M19941 11995c0,67 50,56 102,56l-3 -56c0,-20 3,-24 3,-42l-59 0c-20,0 -43,22 -43,42z"/>
     </g>
     <g>
      <path class="fil4" d="M18712 12001l-669 -24c-32,-1 -33,-46 -1,-45l672 24c3,-84 105,-179 207,-176 56,2 88,10 132,40 6,5 8,6 14,11 135,114 74,318 -93,353 -70,15 -144,-4 -195,-51 -19,-18 -30,-28 -44,-57 -10,-20 -23,-47 -23,-75zm-89 134c66,130 223,200 383,168 143,-28 258,-159 263,-301 2,-64 -7,-92 -27,-144 -20,-51 -82,-121 -133,-149 -10,-6 -16,-11 -28,-16 -53,-22 -81,-33 -149,-35 -134,-5 -249,72 -298,154 -187,-6 -375,-13 -562,-19 -72,-3 -217,-16 -272,-3 -156,37 -177,255 -10,311 35,11 222,13 274,15 186,6 372,13 559,19z"/>
      <path class="fil4" d="M18906 12142c43,2 78,1 116,-27 164,-118 20,-345 -160,-278 -16,6 -25,13 -37,21 -22,16 -33,27 -48,54 -59,108 34,227 129,230z"/>
      <path class="fil4" d="M18146 11738c15,1 25,-8 26,-23l4 -104c1,-33 -50,-34 -51,-2l-3 105c-1,14 9,24 24,24z"/>
      <path class="fil4" d="M18356 11746c15,0 26,-13 26,-20l4 -108c1,-32 -49,-34 -50,-2l-4 105c0,14 9,24 24,25z"/>
      <path class="fil4" d="M17932 11731c17,0 29,-6 30,-23l3 -105c1,-32 -49,-34 -50,-2l-4 102c0,13 10,27 21,28z"/>
      <path class="fil4" d="M18564 11753c17,0 28,-10 29,-26l3 -99c2,-39 -49,-31 -50,-11l-3 111c-1,13 8,24 21,25z"/>
      <path class="fil4" d="M18250 11742c33,1 29,-37 30,-62 2,-47 -52,-40 -53,-8 -1,20 -10,69 23,70z"/>
      <path class="fil4" d="M18039 11735c36,1 30,-41 31,-68 1,-30 -52,-48 -54,10 -1,20 -4,57 23,58z"/>
      <path class="fil4" d="M18460 11749c34,1 26,-32 28,-71 1,-34 -50,-31 -51,2 -1,26 -9,68 23,69z"/>
     </g>
     <path class="fil4" d="M15546 10947l131 -79c43,-21 48,61 57,123l49 287c9,-20 26,-133 34,-169l88 -470c3,-14 6,-29 8,-43 -35,21 -71,42 -106,63 -112,66 -98,60 -111,-202 -1,-21 0,-59 -6,-78l-215 128c7,19 15,85 19,111 6,34 11,74 17,109 7,37 12,72 17,110 3,20 6,34 9,55 2,17 5,39 9,55z"/>
     <g>
      <path class="fil4" d="M20756 11047c0,-6 2,-19 3,-25 5,-23 16,-43 32,-60 16,-15 36,-27 58,-32 89,-19 163,57 145,143 -5,23 -16,43 -33,59 -10,10 -21,19 -35,25 -25,11 -48,14 -75,8 -55,-12 -95,-63 -95,-118zm-290 -1l159 48c7,2 155,45 158,47 3,3 10,32 11,38 4,13 8,26 12,40 8,27 16,54 23,80l49 159c1,-8 73,-253 80,-279 2,-7 4,-12 6,-20 2,-5 3,-16 7,-18 2,-2 34,-11 40,-12l200 -58c13,-4 26,-8 39,-12 8,-2 35,-8 39,-13 -8,0 -206,-59 -240,-69 -13,-3 -26,-7 -39,-11 -48,-14 -39,-7 -46,-30 -2,-8 -4,-13 -6,-20 -7,-26 -79,-271 -80,-279l-3 0c-1,9 -72,250 -80,277 -14,50 -3,38 -50,51l-259 75c-7,2 -13,5 -20,6z"/>
      <path class="fil4" d="M20477 10946c8,0 15,3 23,5 9,3 16,4 24,6l16 -48c7,-16 14,-30 22,-44 8,-13 17,-28 27,-39 41,-51 68,-71 125,-104l72 -27c-2,-8 -3,-15 -6,-24 -2,-8 -5,-15 -5,-23 -24,1 -93,34 -117,49 -17,12 -38,26 -53,40 -48,44 -83,89 -110,152 -4,11 -18,45 -18,57z"/>
      <path class="fil4" d="M20967 11400c2,9 11,40 11,47 14,-1 43,-13 56,-18 35,-15 86,-45 114,-71l20 -19c36,-35 71,-88 89,-133 5,-11 19,-45 19,-57l-47 -11 -16 47c-2,5 -3,7 -5,12l-17 33c-27,44 -46,64 -83,97 -30,27 -77,52 -116,65 -7,2 -19,5 -25,8z"/>
      <path class="fil4" d="M20967 10695c18,9 45,10 92,38 25,15 35,23 57,41 28,23 55,59 74,90 4,7 8,14 12,21 11,19 24,66 27,72l47 -11c-1,-22 -30,-84 -43,-106 -7,-12 -28,-43 -37,-54l-19 -20c-11,-14 -25,-25 -38,-36 -26,-23 -71,-50 -104,-64 -11,-4 -45,-18 -57,-18 0,6 -9,38 -11,47z"/>
      <path class="fil4" d="M20477 11149c0,22 30,84 43,106 8,14 33,50 46,64 24,26 26,25 47,46 10,9 44,32 55,39 23,13 81,41 107,43 0,-7 9,-38 11,-47l-48 -16c-14,-6 -32,-15 -44,-22 -13,-8 -28,-17 -39,-27 -50,-40 -90,-88 -114,-148 -4,-9 -6,-16 -9,-24 -2,-7 -5,-19 -8,-25 -9,2 -41,11 -47,11z"/>
      <path class="fil4" d="M20852 11023l49 0 0 49 -49 0 0 -49zm-48 21c0,25 5,38 20,54 7,6 10,10 20,14 27,14 61,9 83,-13 49,-50 9,-124 -47,-124 -44,0 -76,32 -76,69z"/>
      <path class="fil4" d="M20629 11294l130 -64c0,-8 -13,-49 -15,-51 -2,-2 -19,-6 -24,-8 -8,-2 -18,-6 -27,-6l-64 129z"/>
      <path class="fil4" d="M20994 11231l129 63 -64 -129c-8,0 -18,4 -25,6 -30,10 -25,0 -34,33 -2,7 -6,18 -6,27z"/>
      <path class="fil4" d="M20994 10864c0,9 4,19 6,26 9,33 3,24 33,33 8,3 18,7 27,7l63 -129 -129 63z"/>
      <path class="fil4" d="M20693 10930c7,0 49,-12 51,-15 3,-2 15,-43 15,-51l-129 -64 63 130z"/>
     </g>
     <g>
      <path class="fil4" d="M18310 10232c21,-3 83,-8 96,-18 24,-18 9,-59 -23,-56 -12,1 -24,11 -27,25 -2,7 3,30 -18,31 -18,1 -20,-17 -19,-30 6,-77 124,-88 135,1 3,28 -14,53 -36,65 -18,10 -72,13 -99,17l-4 -35 -5 0z"/>
      <path class="fil4" d="M18204 10133c30,-3 40,-4 56,-19 11,-11 21,-29 20,-50 -1,-12 -5,-22 -10,-30 -18,-30 -43,-33 -74,-29l-5 -35c36,-5 52,-4 83,14 22,14 37,44 41,71 8,62 -35,106 -97,115l-4 -35c-1,0 -1,0 -2,0 0,0 -1,0 -1,-1l-7 -1z"/>
      <path class="fil4" d="M18262 10550l-5 -38c21,-2 27,3 51,-15 40,-29 24,-109 -34,-113l-5 -31c1,-11 -1,6 1,-3l1 -2c26,-1 53,14 67,29 40,41 37,108 -1,143 -9,8 -19,16 -31,21 -6,3 -15,5 -21,7 -10,2 -14,0 -23,2z"/>
      <path class="fil4" d="M17939 10169c2,11 2,30 7,37l-139 19c-40,6 -32,-24 -25,-31 8,-7 51,-11 65,-12 31,-5 62,-9 92,-13z"/>
      <path class="fil4" d="M18191 9970l5 35c-13,8 -39,13 -45,51 -2,14 3,28 -7,36 -12,9 -27,2 -30,-12 -8,-47 29,-103 77,-110z"/>
      <path class="fil4" d="M18015 10379l128 -17c1,6 2,13 3,19 0,3 1,8 1,11 1,6 1,4 -1,8l-130 17 4 -2 -5 -36z"/>
      <path class="fil4" d="M17930 10391c3,2 -4,2 4,1l5 34c-1,0 -3,0 -4,0l-4 2c0,0 0,0 -1,1 -14,2 -96,13 -106,13 -10,-1 -18,-6 -19,-18 -1,-22 30,-21 53,-24 24,-3 48,-6 72,-9z"/>
      <path class="fil4" d="M18146 10400c2,-4 2,-2 1,-8 0,-3 -1,-8 -1,-11 -1,-6 -2,-13 -3,-19 24,-3 114,-19 128,-14l-1 2c-2,9 0,-8 -1,3l5 31c-18,-2 -103,12 -128,16z"/>
      <path class="fil4" d="M18257 10512l5 38c-15,-4 -39,-4 -62,-25 -40,-38 -45,-89 -12,-83 23,4 7,47 51,65 5,2 12,3 18,5z"/>
      <path class="fil4" d="M17939 10169l107 -14 4 36c8,-1 3,-1 5,1l-109 14c-5,-7 -5,-26 -7,-37z"/>
      <path class="fil4" d="M18225 10243c2,2 2,1 3,6 1,2 1,8 2,10 1,7 1,13 2,20l-98 13c-19,1 -26,-27 -7,-35 9,-4 22,-4 32,-5 22,-3 44,-6 66,-9z"/>
      <path class="fil4" d="M18046 10155l107 -15c-3,3 -4,2 -9,3 5,9 1,29 9,35l-98 14c-2,-2 3,-2 -5,-1l-4 -36z"/>
      <path class="fil4" d="M18225 10243l85 -11 5 0 4 35 -87 12c-1,-7 -1,-13 -2,-20 -1,-2 -1,-8 -2,-10 -1,-5 -1,-4 -3,-6z"/>
      <path class="fil4" d="M17930 10391l85 -12 5 36 -4 2 -86 12c1,-1 1,-1 1,-1l4 -2c1,0 3,0 4,0l-5 -34c-8,1 -1,1 -4,-1z"/>
      <path class="fil4" d="M18153 10140l51 -7 7 1c0,1 1,1 1,1 1,0 1,0 2,0l4 35 -65 8c-8,-6 -4,-26 -9,-35 5,-1 6,0 9,-3z"/>
     </g>
     <g>
      <path class="fil4" d="M24709 9038l-494 -18c-24,0 -24,-34 -1,-33l496 17c2,-62 77,-132 153,-129 41,1 65,7 97,29 5,4 6,5 10,8 100,84 55,235 -68,261 -52,11 -106,-3 -144,-38 -14,-13 -22,-20 -32,-42 -7,-14 -17,-35 -17,-55zm-66 99c49,96 164,148 282,124 106,-21 191,-117 195,-222 1,-48 -5,-68 -20,-107 -15,-37 -60,-89 -98,-110 -8,-4 -12,-8 -21,-11 -39,-17 -60,-25 -110,-27 -99,-3 -184,54 -220,114 -138,-4 -277,-9 -415,-14 -53,-2 -160,-11 -201,-2 -115,28 -130,188 -7,229 26,9 164,10 202,12 138,4 275,9 413,14z"/>
      <path class="fil4" d="M24852 9142c31,1 57,1 85,-20 121,-87 15,-254 -118,-205 -12,4 -18,9 -27,15 -16,12 -24,20 -35,40 -44,80 25,168 95,170z"/>
      <path class="fil4" d="M24291 8844c11,0 19,-6 19,-17l3 -77c1,-24 -36,-25 -37,-2l-3 78c0,10 7,18 18,18z"/>
      <path class="fil4" d="M24446 8849c11,1 19,-9 19,-15l3 -79c1,-24 -36,-25 -37,-1l-3 77c0,11 7,18 18,18z"/>
      <path class="fil4" d="M24133 8838c13,1 21,-4 22,-17l2 -77c1,-24 -36,-25 -37,-1l-2 75c-1,9 7,20 15,20z"/>
      <path class="fil4" d="M24599 8855c13,0 21,-7 22,-20l2 -72c1,-29 -36,-23 -37,-8l-2 81c-1,10 6,18 15,19z"/>
      <path class="fil4" d="M24367 8847c25,0 22,-28 23,-46 1,-35 -38,-30 -39,-6 -1,15 -7,51 16,52z"/>
      <path class="fil4" d="M24212 8841c26,1 22,-29 23,-50 1,-22 -38,-35 -40,8 0,14 -3,41 17,42z"/>
      <path class="fil4" d="M24523 8852c25,1 19,-24 20,-52 1,-26 -36,-23 -37,1 -1,19 -7,50 17,51z"/>
     </g>
     <g>
      <path class="fil4" d="M25652 12195l26 0c90,0 171,-81 171,-188 0,-89 -82,-174 -171,-174 -84,0 -143,36 -176,107 -31,66 -15,145 31,196 22,25 74,59 119,59z"/>
      <path class="fil4" d="M25882 12198c23,5 105,66 128,66 45,0 73,-56 34,-90 -8,-7 -28,-17 -37,-22 -14,-7 -24,-14 -38,-22 -13,-7 -26,-17 -41,-21 -4,16 -13,33 -20,46 -4,6 -9,14 -13,20 -6,8 -11,11 -13,23z"/>
      <path class="fil4" d="M25274 12211c0,32 23,53 50,53 17,0 53,-23 67,-32 22,-13 44,-24 64,-37 -44,-67 -18,-26 -49,-86l-74 41c-28,16 -58,28 -58,61z"/>
      <path class="fil4" d="M25882 11830c1,20 33,36 46,89 11,-1 63,-33 77,-41 23,-14 57,-27 57,-61 0,-33 -29,-52 -49,-52 -17,0 -53,22 -67,30 -16,9 -50,32 -64,35z"/>
      <path class="fil4" d="M25274 11814c0,44 44,55 93,85 9,5 29,18 39,20 8,-15 11,-29 21,-45 9,-15 19,-27 28,-41 -21,-11 -41,-24 -62,-36 -41,-22 -67,-50 -104,-18 -10,10 -15,19 -15,35z"/>
      <path class="fil4" d="M25619 12418c0,54 99,62 99,-7l0 -121c-22,0 -31,3 -50,3 -20,0 -27,-3 -49,-3l0 128z"/>
      <path class="fil4" d="M25619 11610l0 128c22,0 30,-3 49,-3 19,0 28,3 50,3l0 -121c0,-68 -99,-62 -99,-7z"/>
      <path class="fil4" d="M25455 11722c0,51 22,46 30,79 15,-5 55,-44 88,-46 -7,-32 -52,-106 -102,-63 -6,5 -16,19 -16,30z"/>
      <path class="fil4" d="M25455 12290c0,31 11,59 49,59 37,0 56,-47 69,-72 -21,-11 -38,-15 -66,-36 -8,-6 -12,-11 -22,-14 -5,20 -30,45 -30,63z"/>
      <path class="fil4" d="M25764 12273c0,10 26,76 69,76 24,0 72,-28 35,-88 -7,-11 -13,-23 -19,-34 -21,12 -59,44 -85,46z"/>
      <path class="fil4" d="M25764 11755c26,2 64,35 85,46 6,-11 12,-23 19,-34 47,-77 -47,-117 -81,-61 -6,12 -22,36 -23,49z"/>
      <path class="fil4" d="M25941 12063c20,0 60,2 73,-2 41,-15 43,-75 2,-93 -17,-7 -52,-3 -75,-3 7,29 7,69 0,98z"/>
      <path class="fil4" d="M25291 12007c0,67 49,56 102,56l-4 -56c0,-20 4,-23 4,-42l-59 0c-21,0 -43,22 -43,42z"/>
     </g>
    </g>
   </g>
  </g>
  <path class="fil5" d="M16017 12123l-625 0 0 -2037 -1100 1935c-27,49 -65,86 -113,112 -49,25 -101,38 -156,38 -55,0 -105,-13 -152,-38 -47,-26 -83,-63 -110,-112l-1105 -1935 0 2037 -621 0 0 -3155c0,-72 22,-136 64,-191 42,-56 98,-93 166,-112 33,-8 67,-11 100,-8 34,2 65,9 96,21 31,12 60,28 85,50 26,21 47,48 64,78l1413 2453 1412 -2453c36,-61 87,-104 151,-129 64,-26 132,-30 202,-12 67,19 121,56 164,112 43,55 65,119 65,191l0 3155zm5035 -1006c0,122 -16,232 -47,330 -31,98 -71,184 -122,259 -51,74 -110,138 -179,191 -68,52 -139,95 -212,129 -74,33 -148,57 -223,74 -76,15 -147,23 -214,23l-2392 0 0 -620 2392 0c119,0 212,-35 278,-105 66,-70 99,-164 99,-281 0,-58 -9,-110 -26,-158 -18,-47 -43,-89 -76,-124 -32,-35 -72,-62 -118,-81 -48,-19 -100,-29 -157,-29l-1426 0c-100,0 -209,-18 -324,-53 -117,-36 -224,-93 -323,-173 -100,-80 -183,-184 -249,-313 -66,-128 -99,-285 -99,-472 0,-186 33,-343 99,-471 66,-128 149,-232 249,-312 99,-81 206,-138 323,-174 115,-36 224,-54 324,-54l2111 0 0 620 -2111 0c-118,0 -209,35 -275,107 -66,72 -100,166 -100,284 0,119 34,214 100,283 66,69 157,104 275,104l1426 0 5 0c67,2 138,11 212,27 75,17 150,43 223,77 74,35 145,80 212,133 66,54 126,117 177,192 51,75 93,160 123,257 30,97 45,207 45,330zm4901 1006l-621 0 0 -839 -2180 0 0 839 -620 0 0 -1710c0,-249 43,-480 128,-689 87,-210 205,-391 358,-541 153,-152 333,-269 542,-354 208,-84 435,-126 682,-126l1398 0c42,0 83,8 121,24 39,16 72,38 100,66 29,29 52,62 67,101 16,38 25,79 25,122l0 3107zm-2801 -1460l2180 0 0 -1340 -1090 0c-19,0 -59,3 -120,9 -61,5 -132,19 -213,41 -80,22 -164,56 -254,103 -89,46 -171,110 -246,190 -74,82 -136,183 -185,305 -48,121 -72,268 -72,442l0 250z"/>
 </g>
</svg>
